<svg viewBox="0 0 96 96" xmlns="http://www.w3.org/2000/svg" xmlns:xlink="http://www.w3.org/1999/xlink" id="Icons_BuildingBrickWall" overflow="hidden"><rect x="38" y="28.998" width="20" height="10"/><rect x="14" y="28.998" width="20" height="10"/><rect x="14" y="42.998" width="8" height="10"/><rect x="74" y="43" width="8" height="10"/><rect x="26" y="43" width="20" height="10"/><rect x="50" y="43" width="20" height="10"/><rect x="38" y="57" width="20" height="10"/><rect x="14" y="57" width="20" height="10"/><rect x="14" y="71" width="8" height="10"/><rect x="74" y="71" width="8" height="10"/><rect x="62" y="57" width="20" height="10"/><rect x="26" y="71" width="20" height="10"/><rect x="50" y="71" width="20" height="10"/><rect x="61.147" y="13.535" width="20" height="9.928" transform="matrix(0.91917 -0.393862 0.393862 0.91917 -1.535 29.517)"/></svg>